<svg width="36" height="39" viewBox="0 0 36 39" fill="none" xmlns="http://www.w3.org/2000/svg">
<path d="M22.9309 13.5985C22.9309 12.781 23.5947 12.1182 24.4136 12.1182C25.2325 12.1182 25.8963 12.781 25.8963 13.5985C25.8963 14.4161 25.2325 15.0788 24.4136 15.0788C23.5947 15.0788 22.9309 14.4161 22.9309 13.5985Z" fill="white"/>
<path fill-rule="evenodd" clip-rule="evenodd" d="M17 13.9686C13.1103 13.9686 9.95705 17.1167 9.95705 21C9.95705 24.8833 13.1103 28.0314 17 28.0314C20.8897 28.0314 24.0429 24.8833 24.0429 21C24.0429 17.1167 20.8897 13.9686 17 13.9686ZM12.1811 21C12.1811 18.343 14.3386 16.189 17 16.189C19.6614 16.189 21.8188 18.343 21.8188 21C21.8188 23.657 19.6614 25.811 17 25.811C14.3386 25.811 12.1811 23.657 12.1811 21Z" fill="white"/>
<path fill-rule="evenodd" clip-rule="evenodd" d="M24.7965 7.43015C19.6565 6.85662 14.3435 6.85662 9.20348 7.43015C6.22016 7.76303 3.81173 10.1093 3.46098 13.1033C2.84634 18.3499 2.84634 23.6501 3.46098 28.8967C3.81173 31.8907 6.22016 34.237 9.20349 34.5699C14.3435 35.1434 19.6565 35.1434 24.7965 34.5699C27.7798 34.237 30.1883 31.8907 30.539 28.8967C31.1537 23.6501 31.1537 18.3499 30.539 13.1033C30.1883 10.1093 27.7798 7.76303 24.7965 7.43015ZM9.45052 9.63685C14.4263 9.08164 19.5737 9.08164 24.5495 9.63685C26.5217 9.85691 28.1015 11.4106 28.33 13.3612C28.9246 18.4364 28.9246 23.5636 28.33 28.6388C28.1015 30.5894 26.5217 32.1431 24.5495 32.3631C19.5737 32.9184 14.4263 32.9184 9.45052 32.3631C7.47834 32.1431 5.89852 30.5894 5.67001 28.6388C5.07544 23.5636 5.07544 18.4364 5.67001 13.3612C5.89852 11.4106 7.47834 9.85691 9.45052 9.63685Z" fill="white"/>
<path d="M35.046 1.746L31.194 3.6L31.626 4.878L35.82 4.104L35.046 1.746ZM34.92 6.93L31.95 3.852L30.87 4.626L32.886 8.388L34.92 6.93ZM29.934 8.388L31.95 4.626L30.87 3.852L27.9 6.93L29.934 8.388ZM27 4.104L31.194 4.878L31.626 3.6L27.774 1.746L27 4.104ZM30.168 0L30.744 4.23H32.076L32.652 0H30.168Z" fill="white"/>
</svg>
