<svg width="35" height="35" viewBox="0 0 35 35" fill="none" xmlns="http://www.w3.org/2000/svg">
<path fill-rule="evenodd" clip-rule="evenodd" d="M34.1321 24.5947C33.339 22.9971 32.2938 21.5377 31.0369 20.2726C30.6092 19.7754 30.1076 19.2847 29.7161 18.9016L29.6614 18.8481C29.4595 18.6505 29.2926 18.4864 29.156 18.345C30.8747 15.9552 32.3457 13.3961 33.5459 10.7073L33.5944 10.5988L33.6283 10.485C33.7861 9.95577 33.9677 8.94942 33.325 8.03996C32.6608 7.09994 31.597 6.93042 30.8848 6.93042H27.6078C26.9246 6.8991 26.2482 7.08378 25.675 7.45926C25.0976 7.83758 24.6558 8.38938 24.4127 9.03444C23.707 10.7154 22.8239 12.3144 21.7797 13.8045V9.96426C21.7797 9.46785 21.733 8.63747 21.2015 7.93659C20.5651 7.09741 19.6447 6.93042 19.0058 6.93042H13.8061C13.1362 6.91492 12.4846 7.15446 11.9839 7.60161C11.4712 8.05953 11.1569 8.69918 11.1079 9.38492L11.1032 9.44988V9.51501C11.1032 10.223 11.3838 10.7452 11.6079 11.0737C11.7082 11.2207 11.8156 11.3546 11.8834 11.4391L11.899 11.4586C11.9713 11.5488 12.0196 11.609 12.068 11.6748C12.1954 11.8481 12.3786 12.1153 12.4304 12.8066V14.9547C11.534 13.4811 10.5884 11.5201 9.87686 9.42577L9.86594 9.39362L9.85384 9.36191C9.67642 8.89726 9.39187 8.22117 8.82197 7.7038C8.1562 7.09939 7.36873 6.93042 6.65257 6.93042H3.32765C2.60313 6.93042 1.7297 7.09991 1.07797 7.78741C0.437088 8.46347 0.364502 9.27356 0.364502 9.70429V9.89843L0.405392 10.0882C1.32634 14.3628 3.22395 18.3657 5.94913 21.784C7.18466 23.7325 8.85883 25.3656 10.8384 26.5526C12.8496 27.7585 15.1186 28.4694 17.4583 28.6266L17.5194 28.6307H17.5806C18.6391 28.6307 19.7425 28.5393 20.5723 27.9864C21.6917 27.2404 21.7797 26.0947 21.7797 25.5239V23.8644C22.067 24.0966 22.4234 24.4092 22.8597 24.8293C23.3872 25.3573 23.8072 25.8147 24.1674 26.214L24.3597 26.4278L24.3608 26.429C24.6405 26.7405 24.9159 27.0471 25.1666 27.2992C25.4817 27.616 25.8702 27.965 26.3586 28.2229C26.8874 28.5022 27.4424 28.6284 28.0319 28.6284H31.3591C32.0601 28.6284 33.0655 28.4627 33.7723 27.6432C34.5426 26.7501 34.4837 25.6555 34.2416 24.8689L34.198 24.7274L34.1321 24.5947ZM25.7916 24.7487C25.417 24.3335 24.9654 23.8414 24.3947 23.2707L24.3899 23.266C22.4123 21.3593 21.4882 21.0271 20.8348 21.0271C20.4873 21.0271 20.1028 21.0661 19.8532 21.3769C19.7354 21.5237 19.6736 21.7006 19.6388 21.8851C19.6042 22.0693 19.5922 22.2856 19.5922 22.5319V25.5239C19.5922 25.8954 19.5311 26.0515 19.3593 26.166C19.1303 26.3186 18.6411 26.4422 17.5928 26.4432C15.6031 26.3075 13.6739 25.7021 11.9633 24.6765C10.2493 23.6488 8.804 22.2286 7.7464 20.5328L7.73489 20.5144L7.72127 20.4974C5.18192 17.3368 3.41246 13.6291 2.55244 9.66735C2.5571 9.47637 2.59848 9.36307 2.66552 9.29235C2.7346 9.21948 2.90198 9.11792 3.32765 9.11792H6.65257C7.02244 9.11792 7.21386 9.19837 7.35162 9.32344C7.50781 9.46523 7.64327 9.70601 7.80785 10.136C8.62395 12.5363 9.72756 14.7811 10.7726 16.4317C11.295 17.2567 11.8091 17.9434 12.2722 18.4287C12.5034 18.6709 12.7302 18.8717 12.9466 19.0144C13.156 19.1525 13.3935 19.2614 13.6376 19.2614C13.7665 19.2614 13.9172 19.2482 14.0623 19.1839C14.2184 19.1148 14.3396 18.9996 14.4251 18.8453C14.5765 18.5722 14.6179 18.1678 14.6179 17.638V12.7326L14.6172 12.7211C14.5416 11.5277 14.1813 10.8564 13.8305 10.3791C13.7536 10.2746 13.6778 10.1801 13.6114 10.0974L13.5932 10.0748C13.5204 9.9839 13.4624 9.91048 13.4148 9.84068C13.3275 9.71277 13.2937 9.62359 13.2909 9.52803C13.3023 9.4146 13.3557 9.30934 13.441 9.2332C13.5295 9.15415 13.6453 9.113 13.7639 9.11792H19.0058C19.3063 9.11792 19.4076 9.19124 19.4585 9.25841C19.5304 9.35324 19.5922 9.55044 19.5922 9.96426V16.5685C19.5922 17.353 19.9538 17.884 20.479 17.884C21.0833 17.884 21.5189 17.5173 22.2807 16.7556L22.2934 16.7429L22.3048 16.729C24.0122 14.6468 25.4077 12.3272 26.4464 9.84284L26.453 9.82422C26.5311 9.60469 26.6789 9.41675 26.8738 9.28907C27.0687 9.16138 27.3 9.10097 27.5324 9.11705L27.545 9.11792H30.8848C31.3403 9.11792 31.4901 9.23384 31.5386 9.30239C31.5901 9.37533 31.626 9.53165 31.5384 9.8382C30.3409 12.5163 28.8601 15.0584 27.1221 17.4217L27.1111 17.4384C26.9423 17.6965 26.7572 17.982 26.7304 18.3099C26.7017 18.6619 26.854 18.982 27.1206 19.325C27.3148 19.6122 27.7154 20.0044 28.1218 20.4022L28.1602 20.4397C28.5863 20.8567 29.0479 21.3085 29.4185 21.7459L29.4284 21.7576L29.4392 21.7684C30.5439 22.8703 31.4624 24.144 32.1591 25.54C32.2703 25.92 32.2022 26.1143 32.1158 26.2145C32.0146 26.3318 31.7881 26.4409 31.3591 26.4409H28.0319C27.7722 26.4409 27.5716 26.3897 27.38 26.2885C27.1803 26.1831 26.975 26.0154 26.7175 25.7565C26.5101 25.548 26.2834 25.2957 26.007 24.9881C25.9385 24.9118 25.8667 24.832 25.7916 24.7487Z" fill="white"/>
</svg>
