<svg width="35" height="35" viewBox="0 0 35 35" fill="none" xmlns="http://www.w3.org/2000/svg">
<path d="M12.9587 10.4561C13.2255 10.4633 13.5213 10.4777 13.8027 11.1024C13.9894 11.5183 14.3037 12.2839 14.5598 12.9076C14.7591 13.3929 14.9231 13.7923 14.9642 13.874C15.0579 14.0607 15.1156 14.2761 14.993 14.5274C14.9786 14.557 14.9649 14.5853 14.9517 14.6126C14.8534 14.8168 14.7834 14.9621 14.6179 15.1521C14.5499 15.2302 14.479 15.3158 14.4084 15.4011C14.2843 15.5511 14.1609 15.7002 14.0552 15.8055C13.8676 15.9921 13.6728 16.1933 13.8892 16.5666C14.1057 16.9399 14.8632 18.1678 15.9814 19.1587C17.1835 20.229 18.2289 20.68 18.7573 20.908C18.8599 20.9522 18.943 20.9881 19.004 21.0185C19.3792 21.2051 19.6028 21.1764 19.8192 20.9251C20.0357 20.6737 20.757 19.8336 21.0096 19.4603C21.2549 19.087 21.5073 19.1444 21.8537 19.2736C22.1999 19.4028 24.0467 20.3075 24.4218 20.4942C24.4959 20.5311 24.5653 20.5644 24.6296 20.5952C24.8906 20.7204 25.068 20.8054 25.1432 20.9323C25.237 21.0902 25.237 21.837 24.9268 22.713C24.6094 23.589 23.08 24.4291 22.3874 24.4937C22.3219 24.4999 22.2566 24.5078 22.1895 24.5159C21.5548 24.5927 20.7491 24.6901 17.8786 23.5602C14.3416 22.1693 12.0068 18.7184 11.5347 18.0207C11.4975 17.9656 11.4718 17.9277 11.4581 17.9093L11.4501 17.8986C11.2353 17.6112 9.92144 15.8531 9.92144 14.0392C9.92144 12.3038 10.7763 11.4003 11.1663 10.9881C11.191 10.962 11.2138 10.9379 11.2345 10.9156C11.5807 10.5423 11.9848 10.449 12.2372 10.449C12.4898 10.449 12.7423 10.449 12.9587 10.4561Z" fill="white"/>
<path fill-rule="evenodd" clip-rule="evenodd" d="M3.18525 31.1084C3.06593 31.5415 3.46039 31.9413 3.89505 31.8277L10.6141 30.0728C12.735 31.2216 15.1229 31.8319 17.5541 31.8319H17.5613C25.5617 31.8319 32.0833 25.3481 32.0833 17.378C32.0833 13.515 30.5754 9.88166 27.8342 7.15307C25.0929 4.42461 21.4497 2.91675 17.5612 2.91675C9.56093 2.91675 3.03931 9.40057 3.03931 17.3708C3.0384 19.9063 3.70765 22.3975 4.97989 24.5941L3.18525 31.1084ZM7.08882 25.1751C7.2446 24.6097 7.16678 24.0054 6.87283 23.4978C5.79344 21.6341 5.22604 19.5206 5.22681 17.3708C5.22681 10.6191 10.7587 5.10425 17.5612 5.10425C20.8715 5.10425 23.9598 6.38318 26.291 8.70349C28.6195 11.0212 29.8958 14.0965 29.8958 17.378C29.8958 24.1296 24.364 29.6444 17.5613 29.6444H17.5541C15.4884 29.6444 13.4584 29.1256 11.656 28.1493C11.1681 27.8851 10.5981 27.8161 10.0613 27.9563L6.03276 29.0085L7.08882 25.1751Z" fill="white"/>
</svg>
