<svg width="35" height="35" viewBox="0 0 35 35" fill="none" xmlns="http://www.w3.org/2000/svg">
<path fill-rule="evenodd" clip-rule="evenodd" d="M15.146 12.1871C14.8081 11.9843 14.3873 11.979 14.0444 12.1732C13.7015 12.3673 13.4896 12.7309 13.4896 13.1249V21.8749C13.4896 22.269 13.7015 22.6326 14.0444 22.8267C14.3873 23.0209 14.8081 23.0156 15.146 22.8128L22.4377 18.4378C22.7671 18.2402 22.9687 17.8841 22.9687 17.4999C22.9687 17.1157 22.7671 16.7597 22.4377 16.5621L15.146 12.1871ZM19.7491 17.4999L15.6771 19.9432V15.0567L19.7491 17.4999Z" fill="white"/>
<path fill-rule="evenodd" clip-rule="evenodd" d="M24.8364 6.76848C19.9529 6.38642 15.0471 6.38642 10.1637 6.76848L6.89597 7.02413C4.90889 7.17959 3.28331 8.66884 2.95484 10.6347C2.19539 15.18 2.19539 19.8198 2.95484 24.3651C3.28331 26.331 4.90889 27.8203 6.89597 27.9758L10.1637 28.2314C15.0471 28.6135 19.9529 28.6135 24.8364 28.2314L28.1041 27.9758C30.0911 27.8203 31.7167 26.331 32.0452 24.3651C32.8046 19.8198 32.8046 15.18 32.0452 10.6347C31.7167 8.66884 30.0911 7.17959 28.1041 7.02413L24.8364 6.76848ZM10.3343 8.94931C15.1042 8.57614 19.8959 8.57614 24.6658 8.94931L27.9334 9.20496C28.9187 9.28204 29.7247 10.0205 29.8876 10.9952C30.6072 15.3019 30.6072 19.698 29.8876 24.0046C29.7247 24.9794 28.9187 25.7178 27.9334 25.7949L24.6658 26.0506C19.8959 26.4237 15.1041 26.4237 10.3343 26.0506L7.06659 25.7949C6.08132 25.7178 5.2753 24.9794 5.11243 24.0046C4.39286 19.698 4.39286 15.3019 5.11243 10.9952C5.2753 10.0205 6.08132 9.28204 7.06659 9.20496L10.3343 8.94931Z" fill="white"/>
</svg>
